<?xml version="1.0" encoding="UTF-8" standalone="no"?>
<!DOCTYPE svg PUBLIC "-//W3C//DTD SVG 1.1//EN" "http://www.w3.org/Graphics/SVG/1.1/DTD/svg11.dtd">
<svg width="100%" height="100%" viewBox="0 0 799 593" version="1.1" xmlns="http://www.w3.org/2000/svg" xmlns:xlink="http://www.w3.org/1999/xlink" xml:space="preserve" xmlns:serif="http://www.serif.com/" style="fill-rule:evenodd;clip-rule:evenodd;stroke-linejoin:round;stroke-miterlimit:2;">
    <g transform="matrix(1,0,0,1,-402.962,-167)">
        <clipPath id="_clip1">
            <rect x="402.939" y="216.947" width="799.005" height="542.24"/>
        </clipPath>
        <g clip-path="url(#_clip1)">
            <g transform="matrix(1,0,0,1,402.962,167)">
                <g transform="matrix(1,0,0,1,-195.33,-135.514)">
                    <path d="M993.289,172.335L196.33,172.335C195.769,172.335 195.307,171.873 195.307,171.312C195.307,170.751 195.769,170.289 196.33,170.289L993.289,170.289C993.85,170.289 994.312,170.751 994.312,171.312C994.312,171.873 993.85,172.335 993.289,172.335Z" style="fill:rgb(202,202,202);fill-rule:nonzero;"/>
                </g>
                <g transform="matrix(1,0,0,1,12.514,0)">
                    <ellipse cx="11.006" cy="11.251" rx="11.006" ry="11.251" style="fill:rgb(63,61,86);"/>
                </g>
                <g transform="matrix(1,0,0,1,50.533,0)">
                    <ellipse cx="11.006" cy="11.251" rx="11.006" ry="11.251" style="fill:rgb(63,61,86);"/>
                </g>
                <g transform="matrix(1,0,0,1,88.553,0)">
                    <ellipse cx="11.006" cy="11.251" rx="11.006" ry="11.251" style="fill:rgb(63,61,86);"/>
                </g>
                <g transform="matrix(1,0,0,1,-205.024,-135.099)">
                    <path d="M980.2,141.98L953.19,141.98C952.068,141.98 951.144,141.056 951.144,139.934C951.144,138.812 952.068,137.888 953.19,137.888L980.2,137.888C981.322,137.888 982.246,138.812 982.246,139.934C982.246,141.056 981.322,141.98 980.2,141.98Z" style="fill:rgb(63,61,86);fill-rule:nonzero;"/>
                </g>
                <g transform="matrix(1,0,0,1,-205.024,-135.198)">
                    <path d="M980.2,149.751L953.19,149.751C952.068,149.751 951.144,148.827 951.144,147.705C951.144,146.583 952.068,145.659 953.19,145.659L980.2,145.659C981.322,145.659 982.246,146.583 982.246,147.705C982.246,148.827 981.322,149.751 980.2,149.751Z" style="fill:rgb(63,61,86);fill-rule:nonzero;"/>
                </g>
                <g transform="matrix(1,0,0,1,-205.024,-135.298)">
                    <path d="M980.2,157.522L953.19,157.522C952.068,157.522 951.144,156.598 951.144,155.476C951.144,154.354 952.068,153.43 953.19,153.43L980.2,153.43C981.322,153.43 982.246,154.354 982.246,155.476C982.246,156.598 981.322,157.522 980.2,157.522Z" style="fill:rgb(63,61,86);fill-rule:nonzero;"/>
                </g>
            </g>
            <g transform="matrix(1,0,0,1,808.702,362.435)">
                <path d="M25.691,4.116C30.571,6.934 33.588,12.158 33.588,17.794C33.588,26.458 26.458,33.588 17.794,33.588C9.323,33.588 2.283,26.773 2.008,18.306L2,17.794L2.008,17.282C2.283,8.815 9.322,2 17.794,2C20.566,2 23.29,2.73 25.691,4.116ZM22.848,21.4C22.553,21.111 22.156,20.948 21.742,20.948C21.318,20.948 20.912,21.119 20.615,21.422C19.873,22.18 18.855,22.608 17.794,22.608C16.733,22.608 15.715,22.18 14.973,21.422C14.676,21.119 14.27,20.948 13.845,20.948C12.979,20.948 12.266,21.661 12.266,22.527C12.266,22.941 12.429,23.338 12.718,23.633C14.054,24.996 15.885,25.766 17.794,25.766C19.703,25.766 21.534,24.996 22.87,23.633C23.159,23.338 23.322,22.941 23.322,22.527C23.322,22.103 23.151,21.697 22.848,21.4ZM13.072,13.051L12.872,13.062C12.078,13.152 11.47,13.831 11.47,14.631C11.47,15.497 12.183,16.21 13.049,16.21C13.052,16.21 13.054,16.21 13.057,16.21L13.257,16.199C14.051,16.109 14.659,15.43 14.659,14.63C14.659,13.764 13.946,13.051 13.08,13.051C13.077,13.051 13.075,13.051 13.072,13.051ZM22.548,13.051L22.348,13.062C21.554,13.152 20.946,13.831 20.946,14.631C20.946,15.497 21.659,16.21 22.525,16.21C22.528,16.21 22.53,16.21 22.533,16.21L22.733,16.199C23.527,16.109 24.135,15.43 24.135,14.63C24.135,13.764 23.422,13.051 22.556,13.051C22.553,13.051 22.551,13.051 22.548,13.051Z" style="fill:rgb(79,44,114);fill-rule:nonzero;"/>
            </g>
            <g transform="matrix(1,0,0,1,-8707.99,16373.8)">
                <path d="M9710.24,-15694.4L9709.97,-15694.4L9696.67,-15694.4C9695.84,-15694.4 9695.12,-15695 9695.02,-15695.8L9695.01,-15696L9695.01,-15711.7C9695.01,-15712.3 9695.33,-15712.9 9695.84,-15713.1C9697.27,-15714 9698.21,-15715.4 9698.32,-15717.1L9698.33,-15717.4L9698.33,-15719.1C9698.35,-15721.8 9700.58,-15724 9703.29,-15724C9703.3,-15724 9703.31,-15724 9703.32,-15724C9705.93,-15724 9708.13,-15722 9708.3,-15719.4L9708.31,-15719.1L9708.31,-15712.5L9711.63,-15712.5C9714.14,-15712.5 9716.28,-15710.6 9716.59,-15708.1L9716.61,-15707.8L9716.62,-15707.6L9716.59,-15707.2L9714.91,-15699C9714.29,-15696.3 9712.44,-15694.4 9710.3,-15694.4L9710.24,-15694.4ZM9690.32,-15694.4C9688.6,-15694.4 9687.15,-15695.7 9687.01,-15697.4L9687,-15697.7L9687,-15709.2C9687.01,-15710.9 9688.36,-15712.4 9690.08,-15712.5L9690.32,-15712.5L9691.99,-15712.5C9692.82,-15712.5 9693.54,-15711.9 9693.64,-15711L9693.65,-15710.8L9693.65,-15696C9693.65,-15695.2 9693.01,-15694.5 9692.18,-15694.4L9691.99,-15694.4L9690.32,-15694.4Z" style="fill:rgb(79,44,114);fill-rule:nonzero;"/>
            </g>
            <g transform="matrix(1,0,0,1,227.619,-3.449)">
                <path d="M712.469,676.055C667.386,676.055 618.395,669.355 569.734,656.473C509.557,640.542 454.382,616.496 410.173,586.933L411.482,584.975C455.482,614.394 510.409,638.331 570.337,654.195C624.493,668.533 679.054,675.176 728.104,673.423L728.189,675.777C723.008,675.964 717.768,676.056 712.469,676.055Z" style="fill:rgb(9,8,20);fill-rule:nonzero;"/>
            </g>
            <g transform="matrix(1,0,0,1,227.564,-0.113)">
                <path d="M705.773,366.732C691.131,361.965 676.073,357.526 661.011,353.539C574.345,330.595 489.152,322.449 414.637,329.986L414.4,327.642C489.192,320.081 574.677,328.242 661.614,351.262C676.714,355.262 691.82,359.712 706.503,364.493L705.773,366.732Z" style="fill:rgb(9,8,20);fill-rule:nonzero;"/>
            </g>
            <g transform="matrix(1,0,0,1,229.526,-0.675)">
                <path d="M306.678,550.589C270.556,515.029 255.299,477.931 263.718,446.13C274.518,405.32 322.518,377.103 395.401,368.715L395.67,371.056C323.8,379.327 276.538,406.91 266,446.733C257.807,477.682 272.842,513.969 308.335,548.911L306.678,550.589Z" style="fill:rgb(9,8,20);fill-rule:nonzero;"/>
            </g>
            <g transform="matrix(1,0,0,1,263.289,-4.231)">
                <path d="M762.811,662.222L762.056,659.99C802.376,646.357 827.595,624.397 834.986,596.48C844.381,560.991 823.97,519.809 777.514,480.52C730.821,441.031 663.488,408.264 587.914,388.258L588.514,385.98C664.414,406.074 732.076,439.01 779.03,478.721C826.22,518.631 846.9,560.666 837.259,597.083C829.661,625.8 803.916,648.324 762.811,662.222Z" style="fill:rgb(9,8,20);fill-rule:nonzero;"/>
            </g>
            <g transform="matrix(1,0,0,1,237.612,-15.335)">
                <path d="M387.539,679.934C298.954,640.645 230.692,589.673 195.329,536.406L197.292,535.106C232.41,588.006 300.313,638.674 388.492,677.784L387.539,679.934Z" style="fill:rgb(9,8,20);fill-rule:nonzero;"/>
            </g>
            <g transform="matrix(1,0,0,1,967.612,543.314)">
                <circle cx="9.424" cy="9.424" r="9.424" style="fill:rgb(230,230,230);"/>
            </g>
            <g transform="matrix(1,0,0,1,792.262,281.923)">
                <circle cx="9.424" cy="9.424" r="9.424" style="fill:rgb(230,230,230);"/>
            </g>
            <g transform="matrix(1,0,0,1,228.055,-2.993)">
                <path d="M376.155,655.826C376.155,658.226 376.234,660.626 376.402,663.003C376.58,665.846 376.886,668.669 377.302,671.473C378.695,680.913 381.359,690.121 385.219,698.847L385.811,700.147L386.111,700.798C386.211,701.015 386.318,701.232 386.417,701.44C386.555,701.726 386.684,702.003 386.817,702.279C386.985,702.624 387.153,702.97 387.33,703.315C387.35,703.354 387.369,703.404 387.399,703.453C387.547,703.753 387.685,704.035 387.843,704.332C387.872,704.397 387.906,704.459 387.943,704.52C388.111,704.856 388.288,705.201 388.466,705.537C388.666,705.892 388.851,706.258 389.048,706.613C389.522,707.492 390.015,708.36 390.519,709.229C390.667,709.486 390.819,709.742 390.973,709.999C391.111,710.236 391.249,710.473 391.397,710.71C391.497,710.868 391.597,711.036 391.697,711.194C391.855,711.461 392.013,711.717 392.181,711.984C392.546,712.566 392.921,713.149 393.287,713.731L393.297,713.731C393.465,713.998 393.643,714.264 393.82,714.521L393.82,714.531C394.343,715.321 394.886,716.11 395.429,716.89C395.434,716.89 395.439,716.895 395.439,716.9C395.873,717.532 396.327,718.144 396.772,718.756L396.772,718.766C397.072,719.151 397.354,719.546 397.651,719.931C397.888,720.247 398.135,720.573 398.381,720.889C398.43,720.958 398.49,721.017 398.539,721.089L398.539,721.099C398.608,721.188 398.677,721.267 398.746,721.356C399.793,722.699 400.872,724.012 401.984,725.295L402.162,725.502C402.221,725.571 402.29,725.64 402.35,725.719C402.45,725.828 402.538,725.936 402.636,726.045C402.734,726.154 402.824,726.262 402.922,726.371C408.72,732.902 415.294,738.7 422.498,743.637C423.456,744.298 424.433,744.937 425.41,745.562C425.657,745.72 425.904,745.878 426.15,746.026C426.219,746.075 426.298,746.126 426.367,746.174C426.505,746.253 426.634,746.332 426.767,746.421C426.9,746.51 427.024,746.579 427.162,746.658C427.685,746.984 428.218,747.3 428.751,747.616C428.879,747.695 429.018,747.774 429.151,747.853C429.284,747.932 429.418,748.001 429.551,748.08C429.551,748.09 429.551,748.09 429.561,748.09L429.571,748.09L429.571,748.1L429.581,748.1C430.242,748.485 430.914,748.86 431.595,749.225C431.96,749.425 432.335,749.625 432.711,749.817C433.56,750.281 434.419,750.725 435.278,751.15C435.584,751.298 435.9,751.45 436.206,751.604C436.463,751.722 436.719,751.851 436.976,751.969C437.055,752.008 437.124,752.038 437.193,752.078C437.41,752.178 437.617,752.278 437.835,752.378C438.072,752.487 438.309,752.595 438.535,752.704C438.802,752.822 439.058,752.941 439.325,753.049C440.312,753.493 441.309,753.918 442.306,754.322C445.879,755.787 449.531,757.052 453.244,758.113C453.412,758.162 453.59,758.213 453.767,758.261C455.356,758.705 456.956,759.11 458.567,759.475C461.38,760.126 464.22,760.66 467.086,761.075L467.106,761.075L468.133,761.223C468.163,761.223 468.192,761.233 468.233,761.233C468.233,761.243 468.233,761.243 468.243,761.233L469.378,761.381C469.404,761.389 469.43,761.392 469.457,761.391C469.812,761.44 470.178,761.48 470.533,761.519L471.688,761.637L472.576,761.726C472.601,761.735 472.628,761.738 472.655,761.736C472.922,761.756 473.188,761.785 473.455,761.805L473.495,761.805L474.186,761.864C476.94,762.081 479.704,762.18 482.508,762.18C485.539,762.18 488.55,762.062 491.521,761.805L491.551,761.805L493.456,761.627C493.624,761.607 493.782,761.597 493.95,761.578C493.98,761.578 494.019,761.568 494.05,761.568C494.099,761.558 494.15,761.558 494.208,761.548C494.235,761.549 494.261,761.546 494.287,761.538C494.504,761.518 494.721,761.489 494.948,761.469L495.688,761.38C495.935,761.35 496.182,761.311 496.428,761.28C496.487,761.27 496.537,761.27 496.596,761.26C496.774,761.24 496.951,761.211 497.129,761.181L497.386,761.151C497.564,761.121 497.732,761.102 497.909,761.072L497.919,761.072C503.336,760.293 508.683,759.089 513.911,757.472C514.187,757.383 514.464,757.304 514.74,757.215C514.75,757.215 514.76,757.205 514.77,757.205C514.849,757.175 514.938,757.156 515.017,757.126C515.757,756.889 516.488,756.642 517.217,756.386C518.224,756.05 519.217,755.686 520.217,755.31C520.484,755.201 520.75,755.103 521.017,754.994C521.56,754.787 522.093,754.57 522.626,754.352C523.534,753.987 524.442,753.602 525.341,753.207C526.18,752.832 527.009,752.457 527.841,752.062C527.861,752.052 527.89,752.052 527.91,752.032C528.098,751.943 528.285,751.854 528.463,751.765L528.473,751.765C533.019,749.583 537.404,747.079 541.593,744.272C542.936,743.374 544.258,742.446 545.561,741.488C546.607,740.708 547.634,739.918 548.661,739.109C553.726,735.08 558.415,730.6 562.669,725.723L562.669,725.713C562.975,725.377 563.261,725.032 563.557,724.686C563.606,724.637 563.646,724.586 563.685,724.548C563.873,724.321 564.05,724.104 564.238,723.887L564.238,723.877C564.485,723.591 564.732,723.295 564.968,722.998C565.027,722.929 565.077,722.87 565.126,722.81L565.126,722.8C565.326,722.563 565.511,722.326 565.708,722.079C565.808,721.961 565.896,721.842 565.994,721.724L565.994,721.714C566.576,720.983 567.139,720.253 567.702,719.503C567.85,719.303 568.002,719.103 568.156,718.891C568.867,717.933 569.556,716.956 570.229,715.979L570.229,715.969C570.486,715.604 570.729,715.229 570.989,714.863L571.729,713.738C571.976,713.343 572.229,712.958 572.479,712.563L572.509,712.504C572.756,712.129 573.003,711.734 573.239,711.349C573.427,711.033 573.614,710.727 573.802,710.421C573.92,710.214 574.049,710.006 574.167,709.789C574.213,709.722 574.256,709.653 574.295,709.582L575.124,708.131C575.45,707.568 575.766,706.996 576.082,706.423C576.2,706.186 576.329,705.949 576.457,705.712C576.506,705.633 576.546,705.554 576.585,705.475C576.733,705.199 576.885,704.912 577.019,704.626C577.153,704.34 577.319,704.063 577.463,703.777C577.607,703.491 577.749,703.214 577.887,702.928C577.996,702.711 578.094,702.494 578.203,702.277C578.211,702.259 578.221,702.243 578.233,702.228C578.282,702.119 578.333,702.021 578.371,701.922C578.383,701.907 578.393,701.891 578.401,701.873C578.51,701.656 578.608,701.429 578.717,701.212C578.855,700.926 578.984,700.63 579.117,700.343C579.206,700.143 579.305,699.943 579.393,699.731C579.521,699.445 579.66,699.158 579.778,698.862C579.916,698.562 580.045,698.27 580.173,697.962C580.21,697.888 580.244,697.812 580.273,697.735C580.342,697.597 580.391,697.459 580.451,697.32C580.609,696.955 580.767,696.58 580.915,696.214C581.093,695.799 581.26,695.375 581.415,694.96C581.573,694.575 581.721,694.18 581.869,693.785L581.928,693.647C584.228,687.589 585.972,681.334 587.14,674.96L587.14,674.95C587.799,671.31 588.27,667.638 588.552,663.95C588.562,663.743 588.582,663.55 588.591,663.35C588.769,660.85 588.848,658.35 588.848,655.828C588.848,654.712 588.828,653.607 588.799,652.501C588.11,629.382 579.862,607.113 565.324,589.124C565.008,588.729 564.692,588.334 564.366,587.939C564.04,587.544 563.705,587.159 563.379,586.774C543.182,563.121 513.593,549.479 482.49,549.479C446.034,549.479 412.027,568.222 392.559,599.045C392.075,599.815 391.592,600.595 391.128,601.375C390.664,602.155 390.2,602.954 389.746,603.754C380.808,619.65 376.126,637.589 376.155,655.826Z" style="fill:rgb(242,242,242);fill-rule:nonzero;"/>
            </g>
            <g transform="matrix(1,0,0,1,227.22,-3.607)">
                <path d="M441.495,598.087C441.417,598.073 441.339,598.062 441.262,598.048C441.589,597.846 441.896,597.614 442.181,597.356L441.495,598.087Z" style="fill:white;fill-rule:nonzero;"/>
            </g>
            <g transform="matrix(1,0,0,1,654.306,613.165)">
                <g transform="matrix(1,0,0,1,43.691,73.367)">
                    <path d="M0.259,0L23.023,0L24.439,26.135L-2.48,24.043L0.259,0Z" style="fill:rgb(255,185,185);fill-rule:nonzero;"/>
                </g>
                <g transform="matrix(1,0,0,1,-433.455,-629.659)">
                    <path d="M433.455,759.817C434.476,760.375 435.51,760.91 436.543,761.417C436.911,761.595 437.291,761.773 437.659,761.963C437.968,762.106 438.277,762.263 438.585,762.403C438.685,762.45 438.763,762.486 438.846,762.534C439.107,762.653 439.357,762.772 439.618,762.89C439.903,763.021 440.188,763.151 440.461,763.282C440.782,763.424 441.091,763.567 441.411,763.698C442.599,764.232 443.798,764.743 444.998,765.23C449.297,766.992 453.691,768.515 458.159,769.791C458.359,769.85 458.575,769.91 458.788,769.969C460.701,770.502 462.625,770.989 464.561,771.43C467.946,772.214 471.363,772.855 474.812,773.354L474.836,773.354L476.071,773.532C476.107,773.532 476.142,773.544 476.19,773.544C476.19,773.556 476.19,773.556 476.202,773.544L477.568,773.722C477.6,773.732 477.634,773.736 477.668,773.734C478.096,773.794 478.535,773.841 478.963,773.889L480.353,774.031L481.422,774.138C481.452,774.149 481.485,774.153 481.517,774.15C481.838,774.174 482.158,774.209 482.479,774.233L482.527,774.233L483.358,774.304C486.672,774.565 489.998,774.684 493.371,774.684C497.018,774.684 500.64,774.541 504.215,774.233L504.251,774.233L506.543,774.019C506.743,773.995 506.935,773.983 507.137,773.96C507.173,773.96 507.22,773.948 507.256,773.948C507.315,773.936 507.375,773.936 507.446,773.924C507.478,773.925 507.51,773.921 507.541,773.912C507.802,773.888 508.064,773.853 508.341,773.829L509.232,773.722C509.532,773.686 509.826,773.639 510.123,773.603C510.194,773.591 510.254,773.591 510.323,773.579C510.537,773.555 510.751,773.52 510.964,773.479L511.273,773.443C511.487,773.407 511.689,773.384 511.903,773.343L511.915,773.343C518.433,772.405 524.867,770.955 531.157,769.008C531.49,768.901 531.822,768.808 532.157,768.699C529.051,754.213 519.369,741.97 505.99,735.608C507.624,734.052 508.754,732.04 509.233,729.835C509.856,726.965 509.308,723.962 507.713,721.497C506.172,719.131 503.752,717.472 500.99,716.888L483.39,713.206C477.531,712.064 471.761,715.91 470.562,721.758C470.382,722.625 470.302,723.51 470.324,724.395C453.362,735.693 441.163,747.393 433.455,759.817Z" style="fill:rgb(79,44,114);fill-rule:nonzero;"/>
                </g>
                <g transform="matrix(1,0,0,1,15.239,13.189)">
                    <circle cx="34.106" cy="34.106" r="34.106" style="fill:rgb(255,185,185);"/>
                </g>
                <g transform="matrix(1,0,0,1,-431.513,-633.644)">
                    <path d="M459.6,710.342C455.963,707.858 452.249,703.084 449.77,699.506C443.128,689.999 440.828,678.104 443.446,666.806C443.859,664.571 444.874,662.491 446.382,660.791C447.988,659.201 450.612,658.448 452.573,659.572C451.492,656.677 451.657,653.46 453.028,650.691C454.406,647.954 456.403,645.576 458.86,643.745C468.42,636.383 481.297,634.859 492.312,639.785C494.442,640.772 490.943,633.148 493.173,633.885C495.387,634.742 497.851,634.699 500.034,633.764C502.134,632.708 509.083,638.981 508.278,636.775C511.971,638.452 514.354,642.15 514.354,646.206C514.354,649.256 513.008,652.154 510.678,654.121C508.918,655.607 506.72,656.462 504.793,657.721C497.839,662.615 495.607,672.033 499.625,679.527C497.597,678.224 495.372,677.257 493.036,676.664C490.66,676.084 488.145,676.689 486.293,678.286C484.751,680.051 484.004,682.377 484.231,684.71C484.307,687.024 484.858,689.305 484.92,691.619C485.101,698.411 488.739,711.325 483.473,714.936C479.312,717.789 464.564,713.735 459.6,710.342Z" style="fill:rgb(47,46,65);fill-rule:nonzero;"/>
                </g>
            </g>
            <g transform="matrix(1,0,0,1,223.128,0.034)">
                <path d="M972.951,419.826C972.951,422.226 972.872,424.626 972.704,427.003C972.526,429.846 972.22,432.669 971.804,435.473C970.411,444.913 967.748,454.121 963.887,462.847L963.295,464.147L962.995,464.799C962.895,465.016 962.788,465.233 962.689,465.441C962.551,465.727 962.422,466.004 962.289,466.28C962.121,466.626 961.953,466.971 961.776,467.317C961.756,467.356 961.737,467.406 961.707,467.455C961.559,467.755 961.421,468.037 961.263,468.334C961.234,468.399 961.2,468.461 961.163,468.522C960.995,468.858 960.817,469.203 960.64,469.539C960.44,469.894 960.255,470.26 960.058,470.615C959.584,471.494 959.091,472.362 958.587,473.231C958.439,473.488 958.287,473.744 958.133,474.001C957.995,474.238 957.857,474.475 957.709,474.712C957.609,474.87 957.509,475.038 957.409,475.196C957.251,475.463 957.093,475.719 956.925,475.986C956.56,476.568 956.185,477.151 955.819,477.733L955.809,477.733C955.641,478 955.463,478.266 955.286,478.523L955.286,478.533C954.763,479.323 954.22,480.112 953.677,480.892C953.672,480.892 953.667,480.897 953.667,480.902C953.233,481.534 952.779,482.146 952.334,482.758L952.334,482.768C952.034,483.153 951.752,483.548 951.455,483.933C951.218,484.249 950.971,484.575 950.724,484.891C950.675,484.96 950.615,485.019 950.566,485.091L950.566,485.101C950.497,485.19 950.428,485.269 950.359,485.358C949.312,486.701 948.233,488.014 947.121,489.297L946.943,489.504C946.884,489.573 946.815,489.642 946.755,489.721C946.655,489.83 946.567,489.938 946.469,490.047C946.371,490.156 946.281,490.264 946.183,490.373C940.385,496.904 933.811,502.702 926.607,507.639C925.65,508.3 924.672,508.939 923.695,509.564C923.448,509.722 923.201,509.88 922.955,510.028C922.886,510.077 922.807,510.128 922.738,510.176C922.6,510.255 922.471,510.334 922.338,510.423C922.205,510.512 922.081,510.581 921.943,510.66C921.42,510.986 920.887,511.302 920.354,511.618C920.226,511.697 920.087,511.776 919.954,511.855C919.821,511.934 919.687,512.003 919.554,512.082C919.554,512.092 919.554,512.092 919.544,512.092L919.534,512.092L919.534,512.102L919.524,512.102C918.863,512.487 918.191,512.862 917.51,513.227C917.145,513.427 916.77,513.627 916.394,513.819C915.545,514.283 914.686,514.727 913.827,515.152C913.521,515.3 913.205,515.452 912.899,515.606C912.642,515.724 912.386,515.853 912.129,515.971C912.05,516.01 911.981,516.04 911.912,516.08C911.695,516.18 911.488,516.28 911.27,516.38C911.033,516.489 910.796,516.597 910.57,516.706C910.303,516.824 910.047,516.943 909.78,517.051C908.793,517.495 907.796,517.92 906.799,518.324C903.226,519.789 899.574,521.054 895.861,522.115C895.693,522.164 895.515,522.215 895.338,522.263C893.749,522.707 892.149,523.112 890.538,523.477C887.725,524.128 884.885,524.662 882.019,525.077L881.999,525.077L880.972,525.225C880.942,525.225 880.913,525.235 880.872,525.235C880.872,525.245 880.872,525.245 880.862,525.235L879.727,525.383C879.701,525.391 879.675,525.394 879.648,525.393C879.293,525.442 878.927,525.482 878.572,525.521L877.417,525.639L876.529,525.728C876.504,525.737 876.477,525.74 876.45,525.738C876.183,525.758 875.917,525.787 875.65,525.807L875.611,525.807L874.92,525.866C872.166,526.083 869.402,526.182 866.598,526.182C863.567,526.182 860.556,526.064 857.585,525.807L857.555,525.807L855.65,525.629C855.482,525.609 855.324,525.599 855.156,525.58C855.126,525.58 855.087,525.57 855.056,525.57C855.007,525.56 854.956,525.56 854.898,525.55C854.871,525.551 854.845,525.548 854.819,525.54C854.602,525.52 854.385,525.491 854.158,525.471L853.418,525.382C853.171,525.352 852.924,525.313 852.678,525.282C852.619,525.272 852.569,525.272 852.51,525.262C852.332,525.242 852.155,525.213 851.977,525.183L851.72,525.153C851.542,525.123 851.374,525.104 851.197,525.074L851.187,525.074C845.77,524.295 840.423,523.091 835.195,521.474C834.919,521.385 834.642,521.306 834.366,521.217C834.356,521.217 834.346,521.207 834.336,521.207C834.257,521.177 834.168,521.158 834.089,521.128C833.349,520.891 832.618,520.644 831.889,520.388C830.882,520.052 829.889,519.688 828.889,519.312C828.622,519.203 828.356,519.105 828.089,518.996C827.546,518.789 827.013,518.572 826.48,518.354C825.572,517.989 824.664,517.604 823.765,517.209C822.926,516.834 822.097,516.459 821.265,516.064C821.245,516.054 821.216,516.054 821.196,516.034C821.008,515.945 820.821,515.856 820.643,515.767L820.633,515.767C816.087,513.585 811.702,511.081 807.513,508.274C806.17,507.376 804.847,506.448 803.544,505.49C802.498,504.71 801.471,503.92 800.444,503.111C795.379,499.082 790.691,494.602 786.436,489.725L786.436,489.715C786.13,489.379 785.844,489.034 785.548,488.688C785.499,488.639 785.459,488.588 785.42,488.55C785.232,488.323 785.055,488.106 784.867,487.889L784.867,487.879C784.62,487.593 784.373,487.297 784.136,487C784.077,486.931 784.027,486.872 783.978,486.812L783.978,486.802C783.778,486.565 783.593,486.328 783.396,486.081C783.296,485.963 783.208,485.844 783.11,485.726L783.11,485.716C782.528,484.986 781.965,484.255 781.402,483.505C781.254,483.305 781.102,483.105 780.948,482.893C780.237,481.935 779.548,480.958 778.875,479.981L778.875,479.971C778.618,479.606 778.375,479.231 778.115,478.865L777.375,477.74C777.128,477.345 776.875,476.96 776.625,476.565L776.595,476.506C776.348,476.131 776.101,475.736 775.864,475.351C775.676,475.035 775.489,474.729 775.301,474.423C775.183,474.216 775.054,474.008 774.936,473.791C774.89,473.724 774.847,473.655 774.808,473.584L773.979,472.133C773.653,471.57 773.337,470.998 773.021,470.425C772.903,470.188 772.774,469.951 772.646,469.714C772.597,469.635 772.557,469.556 772.518,469.477C772.37,469.201 772.218,468.914 772.084,468.628C771.95,468.342 771.784,468.065 771.64,467.779C771.496,467.493 771.354,467.216 771.216,466.93C771.107,466.713 771.009,466.496 770.9,466.278C770.892,466.26 770.882,466.244 770.87,466.229C770.821,466.12 770.77,466.022 770.732,465.923C770.72,465.908 770.71,465.892 770.702,465.874C770.593,465.657 770.495,465.43 770.386,465.213C770.248,464.927 770.119,464.631 769.986,464.344C769.897,464.144 769.798,463.944 769.71,463.732C769.582,463.446 769.443,463.159 769.325,462.863C769.187,462.563 769.058,462.271 768.93,461.963C768.893,461.889 768.859,461.813 768.83,461.736C768.761,461.598 768.712,461.46 768.652,461.321C768.494,460.956 768.336,460.581 768.188,460.215C768.01,459.8 767.843,459.376 767.688,458.961C767.53,458.576 767.382,458.181 767.234,457.786L767.175,457.648C764.875,451.59 763.13,445.335 761.963,438.961L761.963,438.951C761.304,435.311 760.833,431.639 760.551,427.951C760.541,427.744 760.521,427.551 760.512,427.351C760.334,424.851 760.255,422.351 760.255,419.829C760.255,418.713 760.275,417.608 760.304,416.502C760.993,393.383 769.241,371.115 783.779,353.126C784.095,352.731 784.411,352.336 784.737,351.941C785.063,351.546 785.398,351.161 785.724,350.776C805.921,327.123 835.51,313.481 866.613,313.481C903.069,313.481 937.076,332.224 956.544,363.047C957.028,363.817 957.512,364.597 957.976,365.377C958.44,366.157 958.904,366.956 959.358,367.756C968.3,383.652 972.985,401.592 972.958,419.83L972.951,419.826Z" style="fill:rgb(242,242,242);fill-rule:nonzero;"/>
            </g>
            <g transform="matrix(1,0,0,1,221.212,-0.58)">
                <path d="M910.363,362.087C910.441,362.073 910.519,362.062 910.596,362.048C910.269,361.846 909.962,361.614 909.677,361.356L910.363,362.087Z" style="fill:white;fill-rule:nonzero;"/>
            </g>
            <g transform="matrix(1,0,0,1,1039.88,389.384)">
                <g transform="matrix(1,0,0,1,29.421,70.806)">
                    <path d="M2.682,2.962L29.647,0L36.064,23.621L10.527,29.615L2.682,2.962Z" style="fill:rgb(237,157,160);fill-rule:nonzero;"/>
                </g>
                <g transform="matrix(1,0,0,1,6.89,15.651)">
                    <ellipse cx="31.943" cy="32.655" rx="31.943" ry="32.655" style="fill:rgb(237,157,160);"/>
                </g>
                <g transform="matrix(1,0,0,1,-817.72,-396.054)">
                    <path d="M924.72,519.408C923.795,519.914 922.859,520.398 921.92,520.86C921.587,521.021 921.242,521.183 920.909,521.355C920.629,521.484 920.349,521.624 920.07,521.755C919.984,521.798 919.909,521.83 919.833,521.873C919.596,521.981 919.37,522.088 919.133,522.196C918.875,522.314 918.617,522.433 918.369,522.551C918.078,522.68 917.799,522.809 917.508,522.927C916.432,523.411 915.345,523.874 914.259,524.315C910.365,525.911 906.385,527.29 902.338,528.446C902.155,528.5 901.961,528.554 901.768,528.607C900.035,529.091 898.292,529.532 896.539,529.93C893.472,530.64 890.377,531.221 887.254,531.673L887.233,531.673L886.114,531.834C886.082,531.834 886.049,531.845 886.006,531.845C886.006,531.856 886.006,531.856 885.995,531.845L884.758,532.006C884.73,532.014 884.701,532.018 884.672,532.017C884.285,532.071 883.887,532.117 883.499,532.157L882.24,532.286L881.272,532.386C881.244,532.396 881.215,532.399 881.186,532.397C880.895,532.418 880.605,532.451 880.315,532.472L880.272,532.472L879.519,532.537C876.519,532.774 873.505,532.881 870.449,532.881C867.149,532.881 863.865,532.752 860.626,532.472L860.6,532.472L858.524,532.278C858.341,532.256 858.169,532.246 857.986,532.224C857.954,532.224 857.911,532.213 857.878,532.213C857.824,532.202 857.77,532.202 857.706,532.191C857.677,532.192 857.648,532.188 857.62,532.18C857.383,532.159 857.147,532.126 856.899,532.105L856.092,532.005C855.823,531.973 855.554,531.93 855.285,531.897C855.22,531.886 855.167,531.886 855.102,531.876C854.908,531.854 854.715,531.822 854.521,531.79L854.241,531.758C854.047,531.726 853.864,531.704 853.671,531.672L853.66,531.672C847.756,530.822 841.929,529.509 836.231,527.745C835.931,527.645 835.631,527.562 835.331,527.465C838.144,514.344 846.913,503.254 859.031,497.491C857.551,496.081 856.528,494.259 856.094,492.262C855.53,489.662 856.026,486.942 857.471,484.709C858.867,482.566 861.058,481.064 863.56,480.535L879.5,477.2C884.807,476.165 890.034,479.649 891.12,484.946C891.283,485.731 891.355,486.532 891.335,487.334C906.688,497.557 917.738,508.154 924.72,519.408Z" style="fill:rgb(79,44,114);fill-rule:nonzero;"/>
                </g>
                <g transform="matrix(1,0,0,1,-816.491,-386.336)">
                    <path d="M940.8,420.479C935.37,414.147 932.789,405.746 928.448,398.556C924.107,391.366 916.554,384.93 908.574,386.604C903.074,387.758 898.822,392.612 896.674,398.023C894.526,403.434 894.119,409.403 893.742,415.249C893.875,403.234 885.959,391.586 875.055,387.749C864.151,383.912 851.102,388.192 844.255,397.849C838.096,392.141 828.534,391.94 822.141,397.385C816.012,402.863 814.656,413.285 819.163,420.275C823.67,427.265 833.431,429.865 840.594,425.99L843.126,428.319C841.701,433.304 844.465,439.193 849.111,441.07C852.879,442.592 858.198,442.339 859.611,446.293C860.596,449.056 858.755,452.005 856.796,454.128C854.837,456.251 852.512,458.443 852.276,461.381C851.921,465.814 856.501,468.919 860.666,469.854C870.707,472.109 881.848,467.459 887.635,458.598C887.746,458.427 887.868,458.256 887.999,458.085C894.558,449.697 897.381,438.967 895.799,428.437C895.473,426.389 895.799,424.866 897.214,424.381C903.314,422.281 920.414,426.681 925.592,430.661C930.77,434.641 934.912,439.9 939.892,444.134C944.872,448.368 951.229,451.634 957.559,450.48C962.628,449.557 966.941,445.88 969.841,441.437C972.741,436.994 974.411,431.824 975.906,426.681C964.69,433.156 949.348,430.445 940.8,420.479Z" style="fill:rgb(47,46,65);fill-rule:nonzero;"/>
                </g>
            </g>
            <g transform="matrix(1,0,0,1,229.312,0.893)">
                <path d="M278.155,352.826C278.155,355.226 278.234,357.626 278.402,360.003C278.58,362.846 278.886,365.669 279.302,368.473C280.695,377.913 283.358,387.121 287.219,395.847L287.811,397.147L288.111,397.799C288.211,398.016 288.318,398.233 288.417,398.441C288.555,398.727 288.684,399.004 288.817,399.28C288.985,399.626 289.153,399.971 289.33,400.317C289.35,400.356 289.369,400.406 289.399,400.455C289.547,400.755 289.685,401.037 289.843,401.334C289.872,401.399 289.906,401.461 289.943,401.522C290.111,401.858 290.289,402.203 290.466,402.539C290.666,402.894 290.851,403.26 291.048,403.615C291.522,404.494 292.015,405.362 292.519,406.231C292.667,406.488 292.819,406.744 292.973,407.001C293.111,407.238 293.249,407.475 293.397,407.712C293.497,407.87 293.597,408.038 293.697,408.196C293.855,408.463 294.013,408.719 294.181,408.986C294.546,409.568 294.921,410.151 295.287,410.733L295.297,410.733C295.465,411 295.642,411.266 295.82,411.523L295.82,411.533C296.343,412.323 296.886,413.112 297.429,413.892C297.431,413.891 297.434,413.891 297.436,413.892C297.437,413.894 297.437,413.897 297.436,413.899C297.87,414.531 298.324,415.143 298.769,415.755L298.769,415.765C299.069,416.15 299.351,416.545 299.648,416.93C299.885,417.246 300.132,417.572 300.378,417.888C300.427,417.957 300.487,418.016 300.536,418.088L300.536,418.098C300.605,418.187 300.674,418.266 300.743,418.355C301.79,419.698 302.869,421.011 303.981,422.294L304.159,422.501C304.218,422.57 304.287,422.639 304.347,422.718C304.447,422.827 304.535,422.935 304.633,423.044C304.731,423.153 304.821,423.261 304.919,423.37C310.717,429.901 317.291,435.699 324.495,440.636C325.453,441.297 326.43,441.936 327.407,442.561C327.654,442.719 327.901,442.877 328.147,443.025C328.216,443.074 328.295,443.125 328.364,443.173C328.502,443.252 328.631,443.331 328.764,443.42C328.897,443.509 329.021,443.578 329.159,443.657C329.682,443.983 330.215,444.299 330.748,444.615C330.876,444.694 331.015,444.773 331.148,444.852C331.281,444.931 331.415,445 331.548,445.079C331.548,445.089 331.548,445.089 331.558,445.089L331.568,445.089L331.568,445.099L331.578,445.099C332.239,445.484 332.911,445.859 333.592,446.224C333.957,446.424 334.332,446.624 334.708,446.816C335.557,447.28 336.416,447.724 337.275,448.149C337.581,448.297 337.897,448.449 338.203,448.603C338.46,448.721 338.716,448.85 338.973,448.968C339.052,449.007 339.121,449.037 339.19,449.077C339.407,449.177 339.614,449.277 339.832,449.377C340.069,449.486 340.306,449.594 340.532,449.703C340.799,449.821 341.055,449.94 341.322,450.049C342.309,450.493 343.306,450.918 344.303,451.322C347.876,452.787 351.528,454.052 355.241,455.113C355.409,455.162 355.586,455.213 355.764,455.261C357.353,455.705 358.953,456.11 360.564,456.475C363.377,457.126 366.217,457.66 369.083,458.075L369.103,458.075L370.13,458.223C370.16,458.223 370.189,458.233 370.23,458.233C370.23,458.243 370.23,458.243 370.24,458.233L371.375,458.381C371.401,458.389 371.427,458.392 371.454,458.391C371.809,458.44 372.175,458.48 372.53,458.519L373.685,458.637L374.573,458.726C374.598,458.735 374.625,458.738 374.652,458.736C374.919,458.756 375.185,458.785 375.452,458.805L375.491,458.805L376.182,458.864C378.936,459.081 381.7,459.18 384.504,459.18C387.535,459.18 390.545,459.062 393.517,458.805L393.547,458.805L395.452,458.627C395.62,458.607 395.778,458.597 395.946,458.578C395.976,458.578 396.015,458.568 396.046,458.568C396.095,458.558 396.146,458.558 396.204,458.548C396.231,458.549 396.257,458.546 396.283,458.538C396.5,458.518 396.717,458.489 396.944,458.469L397.684,458.38C397.931,458.35 398.178,458.311 398.424,458.28C398.483,458.27 398.533,458.27 398.592,458.26C398.77,458.24 398.947,458.211 399.125,458.181L399.382,458.151C399.56,458.121 399.727,458.102 399.905,458.072L399.915,458.072C405.332,457.293 410.679,456.089 415.907,454.472C416.183,454.383 416.46,454.304 416.736,454.215C416.746,454.215 416.756,454.205 416.766,454.205C416.845,454.175 416.934,454.156 417.013,454.126C417.753,453.889 418.484,453.642 419.213,453.386C420.22,453.05 421.213,452.686 422.213,452.31C422.48,452.201 422.746,452.103 423.013,451.994C423.556,451.787 424.089,451.57 424.622,451.352C425.53,450.987 426.438,450.602 427.337,450.207C428.176,449.832 429.005,449.457 429.837,449.062C429.857,449.052 429.886,449.052 429.906,449.032C430.094,448.943 430.281,448.854 430.459,448.765L430.469,448.765C435.015,446.583 439.4,444.079 443.589,441.272C444.932,440.374 446.254,439.446 447.557,438.488C448.603,437.708 449.63,436.918 450.657,436.109C455.722,432.08 460.41,427.6 464.665,422.723L464.665,422.713C464.971,422.377 465.257,422.032 465.553,421.686C465.602,421.637 465.642,421.586 465.681,421.548C465.869,421.321 466.046,421.104 466.234,420.887L466.234,420.877C466.481,420.591 466.728,420.295 466.964,419.998C467.023,419.929 467.073,419.87 467.122,419.81L467.122,419.8C467.322,419.563 467.507,419.326 467.704,419.079C467.804,418.961 467.892,418.842 467.99,418.724L467.99,418.714C468.572,417.984 469.135,417.253 469.698,416.503C469.846,416.303 469.998,416.103 470.152,415.891C470.863,414.933 471.552,413.956 472.225,412.979L472.225,412.969C472.482,412.604 472.725,412.229 472.985,411.863L473.725,410.738C473.972,410.343 474.225,409.958 474.475,409.563L474.505,409.504C474.752,409.129 474.999,408.734 475.235,408.349C475.423,408.033 475.61,407.727 475.798,407.421C475.916,407.214 476.045,407.006 476.163,406.789C476.209,406.722 476.252,406.653 476.291,406.582L477.12,405.131C477.446,404.568 477.762,403.996 478.078,403.423C478.196,403.186 478.325,402.949 478.453,402.712C478.502,402.633 478.542,402.554 478.581,402.475C478.729,402.199 478.881,401.912 479.015,401.626C479.149,401.34 479.315,401.063 479.459,400.777C479.603,400.491 479.745,400.214 479.883,399.928C479.992,399.711 480.09,399.494 480.199,399.276C480.207,399.258 480.217,399.242 480.229,399.227C480.278,399.118 480.329,399.02 480.367,398.921C480.379,398.906 480.389,398.89 480.397,398.872C480.506,398.655 480.604,398.428 480.713,398.211C480.851,397.925 480.98,397.629 481.113,397.342C481.202,397.142 481.301,396.942 481.389,396.73C481.517,396.444 481.656,396.157 481.774,395.861C481.912,395.561 482.041,395.269 482.169,394.961C482.206,394.887 482.24,394.811 482.269,394.734C482.338,394.596 482.387,394.458 482.447,394.319C482.605,393.954 482.763,393.579 482.911,393.213C483.089,392.798 483.257,392.374 483.411,391.959C483.569,391.574 483.717,391.179 483.865,390.784L483.924,390.646C486.224,384.588 487.969,378.333 489.136,371.959L489.136,371.949C489.795,368.309 490.266,364.637 490.548,360.949C490.558,360.742 490.578,360.549 490.588,360.349C490.766,357.849 490.845,355.349 490.845,352.827C490.845,351.711 490.825,350.606 490.796,349.5C490.107,326.381 481.859,304.113 467.321,286.124C467.005,285.729 466.689,285.334 466.363,284.939C466.037,284.544 465.702,284.159 465.376,283.774C445.179,260.121 415.59,246.479 384.487,246.479C348.031,246.479 314.024,265.222 294.556,296.045C294.072,296.815 293.589,297.595 293.125,298.375C292.661,299.155 292.197,299.954 291.743,300.754C282.802,316.65 278.116,334.589 278.143,352.827L278.155,352.826Z" style="fill:rgb(242,242,242);fill-rule:nonzero;"/>
            </g>
            <g transform="matrix(1,0,0,1,228.477,0.279)">
                <path d="M343.495,295.087C343.417,295.073 343.339,295.062 343.262,295.048C343.589,294.846 343.896,294.614 344.181,294.356L343.495,295.087Z" style="fill:white;fill-rule:nonzero;"/>
            </g>
            <g transform="matrix(1,0,0,1,564.032,320.101)">
                <g transform="matrix(1,0,0,1,41.358,62.103)">
                    <path d="M2.826,0L27.626,0L26.57,32.121L-1.5,29.923L2.826,0Z" style="fill:rgb(158,97,106);fill-rule:nonzero;"/>
                </g>
                <g transform="matrix(1,0,0,1,-335.455,-328.043)">
                    <path d="M335.455,454.775C336.423,455.309 337.401,455.82 338.38,456.309C338.729,456.479 339.089,456.65 339.438,456.832C339.731,456.968 340.023,457.116 340.316,457.252C340.406,457.297 340.485,457.332 340.563,457.377C340.811,457.491 341.047,457.604 341.294,457.718C341.564,457.843 341.834,457.968 342.094,458.093C342.394,458.229 342.694,458.366 342.994,458.493C344.119,459.004 345.256,459.493 346.394,459.958C350.465,461.643 354.627,463.099 358.86,464.32C359.051,464.377 359.254,464.434 359.46,464.49C361.271,465.001 363.094,465.468 364.928,465.89C368.135,466.64 371.371,467.253 374.638,467.73L374.66,467.73L375.83,467.9C375.864,467.9 375.898,467.911 375.943,467.911C375.943,467.922 375.943,467.922 375.954,467.911L377.248,468.081C377.277,468.09 377.308,468.093 377.338,468.092C377.743,468.149 378.159,468.192 378.564,468.24L379.88,468.376L380.893,468.476C380.922,468.486 380.953,468.49 380.983,468.487C381.283,468.51 381.591,468.544 381.894,468.567L381.939,468.567L382.727,468.635C385.866,468.885 389.016,468.998 392.212,468.998C395.666,468.998 399.098,468.862 402.484,468.566L402.518,468.566L404.689,468.366C404.88,468.343 405.06,468.332 405.252,468.309C405.286,468.309 405.331,468.298 405.365,468.298C405.421,468.287 405.478,468.287 405.545,468.275C405.575,468.276 405.606,468.273 405.635,468.264C405.883,468.241 406.135,468.207 406.389,468.185L407.233,468.085C407.514,468.051 407.796,468.005 408.077,467.971C408.145,467.96 408.201,467.96 408.268,467.948C408.468,467.925 408.668,467.891 408.876,467.857L409.169,467.823C409.369,467.789 409.563,467.766 409.769,467.732L409.78,467.732C415.954,466.831 422.046,465.442 428,463.578C428.315,463.478 428.63,463.385 428.945,463.278C426.036,449.467 416.87,437.763 404.158,431.63C405.708,430.137 406.778,428.214 407.23,426.109C407.82,423.366 407.302,420.498 405.79,418.135C404.339,415.878 402.045,414.291 399.422,413.728L382.748,410.207C377.174,409.131 371.698,412.817 370.597,418.386C370.427,419.215 370.351,420.062 370.372,420.908C354.312,431.7 342.757,442.893 335.455,454.775Z" style="fill:rgb(79,44,114);fill-rule:nonzero;"/>
                </g>
                <g transform="matrix(1,0,0,1,15.982,9.148)">
                    <circle cx="35.61" cy="35.61" r="35.61" style="fill:rgb(158,97,106);"/>
                </g>
                <g transform="matrix(1,0,0,1,-341.889,-318.771)">
                    <path d="M388.422,397.236C379.507,399.644 369.678,396.443 362.722,390.37C355.766,384.297 351.413,375.694 348.905,366.806C347.068,360.297 346.198,353.072 349.096,346.961C351.994,340.85 359.796,336.728 365.812,339.814C362.1,335.489 363.954,328.335 368.29,324.636C372.626,320.937 378.579,319.875 384.249,319.295C392.478,318.453 400.978,318.359 408.809,321.025C416.64,323.691 423.754,329.519 426.209,337.425C431.34,339.814 437.485,338.427 441.092,334.065C442.024,339.074 439.458,344.123 434.863,346.323L446.863,342.433C448.926,346.801 445.311,352.206 440.687,353.605C436.063,355.004 431.073,353.475 426.687,351.454C422.301,349.433 418.048,346.879 413.282,346.091C408.516,345.303 402.918,346.834 400.714,351.132C399.559,353.383 399.499,356.02 398.829,358.459C398.159,360.898 396.461,363.428 393.938,363.628C392.345,363.754 390.784,362.905 389.195,363.079C387.207,363.471 385.632,365.011 385.195,366.99C384.8,368.936 384.795,370.942 385.181,372.89L388.229,396.19L388.422,397.236Z" style="fill:rgb(47,46,65);fill-rule:nonzero;"/>
                </g>
            </g>
            <g transform="matrix(1,0,0,1,403.603,483.374)">
                <path d="M9.868,3.123C12.697,2.641 15.596,3.469 17.743,5.373L17.801,5.425L17.855,5.378C19.901,3.58 22.626,2.749 25.327,3.1L25.715,3.157C30.239,3.938 33.576,7.9 33.576,12.491C33.576,14.891 32.664,17.203 31.026,18.957L30.742,19.249L30.666,19.314L18.9,30.968C18.341,31.521 17.45,31.576 16.827,31.097L16.679,30.968L4.854,19.25C3.022,17.467 1.987,15.017 1.987,12.46C1.987,7.862 5.335,3.895 9.868,3.123Z" style="fill:rgb(79,44,114);fill-rule:nonzero;"/>
            </g>
            <g transform="matrix(1,0,0,1,-8739.55,16084.2)">
                <path d="M9689.74,-15698.7C9687.24,-15698.7 9685.15,-15700.7 9685.01,-15703.2L9685,-15703.5L9685,-15718.4L9699.92,-15708.5L9700.1,-15708.4C9700.53,-15708.1 9701.05,-15708.1 9701.49,-15708.4L9701.67,-15708.5L9716.59,-15718.4L9716.59,-15703.5C9716.59,-15701 9714.62,-15698.9 9712.13,-15698.7L9711.85,-15698.7L9689.74,-15698.7ZM9685.7,-15721.7C9686.5,-15723.1 9687.89,-15723.9 9689.42,-15724L9689.74,-15724L9711.84,-15724C9713.49,-15724 9715.02,-15723.1 9715.88,-15721.7L9700.79,-15711.7L9685.7,-15721.7Z" style="fill:rgb(79,44,114);fill-rule:nonzero;"/>
            </g>
            <g transform="matrix(1,0,0,1,544.14,546.914)">
                <path d="M27.272,3C30.738,3 33.59,5.852 33.59,9.318L33.59,21.954C33.59,25.42 30.738,28.272 27.272,28.272L19.81,28.272L12.289,32.785C12.043,32.933 11.762,33.011 11.476,33.011C10.677,33.011 9.998,32.405 9.907,31.611L9.898,31.431L9.898,28.272L8.318,28.272C4.972,28.272 2.176,25.614 2.008,22.272L2,21.954L2,9.318C2,5.852 4.852,3 8.318,3L27.272,3ZM20.954,17.215L11.477,17.215C10.611,17.215 9.898,17.928 9.898,18.795C9.898,19.661 10.611,20.374 11.477,20.374L20.954,20.374C21.82,20.374 22.534,19.661 22.534,18.795C22.534,17.928 21.82,17.215 20.954,17.215M24.113,10.9L11.477,10.9C10.611,10.9 9.898,11.613 9.898,12.48C9.898,13.346 10.611,14.059 11.477,14.059L24.113,14.059C24.979,14.059 25.693,13.346 25.693,12.48C25.693,11.613 24.979,10.9 24.113,10.9" style="fill:rgb(79,44,114);fill-rule:nonzero;"/>
            </g>
            <g transform="matrix(1,0,0,1,546.14,481.733)">
                <circle cx="9.424" cy="9.424" r="9.424" style="fill:rgb(230,230,230);"/>
            </g>
        </g>
    </g>
</svg>
